<svg width="20" height="20" viewBox="0 0 20 20" fill="none" xmlns="http://www.w3.org/2000/svg">
<path d="M10 19.175L8.55 17.875C6.86667 16.3583 5.475 15.05 4.375 13.95C3.275 12.85 2.4 11.8623 1.75 10.987C1.1 10.1123 0.646 9.30828 0.388 8.57495C0.13 7.84162 0.000666667 7.09162 0 6.32495C0 4.75828 0.525 3.44995 1.575 2.39995C2.625 1.34995 3.93333 0.824951 5.5 0.824951C6.36667 0.824951 7.19167 1.00828 7.975 1.37495C8.75833 1.74162 9.43333 2.25828 10 2.92495C10.5667 2.25828 11.2417 1.74162 12.025 1.37495C12.8083 1.00828 13.6333 0.824951 14.5 0.824951C16.0667 0.824951 17.375 1.34995 18.425 2.39995C19.475 3.44995 20 4.75828 20 6.32495C20 7.09162 19.8707 7.84162 19.612 8.57495C19.3533 9.30828 18.8993 10.1123 18.25 10.987C17.6 11.8623 16.725 12.85 15.625 13.95C14.525 15.05 13.1333 16.3583 11.45 17.875L10 19.175ZM10 16.475C11.6 15.0416 12.9167 13.8123 13.95 12.787C14.9833 11.7616 15.8 10.8703 16.4 10.113C17 9.35428 17.4167 8.67895 17.65 8.08695C17.8833 7.49495 18 6.90762 18 6.32495C18 5.32495 17.6667 4.49162 17 3.82495C16.3333 3.15828 15.5 2.82495 14.5 2.82495C13.7167 2.82495 12.9917 3.04562 12.325 3.48695C11.6583 3.92828 11.2 4.49095 10.95 5.17495H9.05C8.8 4.49162 8.34167 3.92895 7.675 3.48695C7.00833 3.04495 6.28333 2.82428 5.5 2.82495C4.5 2.82495 3.66667 3.15828 3 3.82495C2.33333 4.49162 2 5.32495 2 6.32495C2 6.90828 2.11667 7.49595 2.35 8.08795C2.58333 8.67995 3 9.35495 3.6 10.113C4.2 10.871 5.01667 11.7626 6.05 12.788C7.08333 13.8133 8.4 15.0423 10 16.475Z" fill="#222222"/>
</svg>
